G05
M48
METRIC
FMAT,2
T1C000.800
T2C000.950
T3C003.200
%
T001
X4.547Y6.769
X4.547Y22.009
X7.087Y9.309
X7.087Y19.469
X9.627Y6.769
X9.627Y22.009
X10.897Y14.389
X10.897Y16.929
X12.167Y4.229
X12.167Y6.769
X12.167Y9.309
X12.167Y22.009
X12.167Y24.549
X14.707Y11.849
X14.707Y19.469
X17.247Y11.849
X17.247Y19.469
X19.787Y11.849
X19.787Y19.469
X22.327Y4.229
X22.327Y6.769
X22.327Y9.309
X22.327Y11.849
X22.327Y19.469
X22.327Y22.009
X22.327Y24.549
X24.867Y4.229
X24.867Y6.769
X24.867Y9.309
X24.867Y11.849
X24.867Y16.929
X24.867Y19.469
X24.867Y22.009
X24.867Y24.549
X28.677Y14.389
X29.947Y4.229
X31.217Y14.389
X32.487Y4.229
X35.027Y6.769
X35.027Y9.309
X35.027Y11.849
X35.027Y16.929
X35.027Y19.469
X35.027Y22.009
X35.027Y24.549
X38.837Y9.309
X38.837Y11.849
X38.837Y19.469
X38.837Y22.009
X40.107Y4.229
X42.647Y4.229
X42.647Y8.039
X42.647Y10.579
X42.647Y20.739
X44.552Y6.134
T002
X2.642Y13.119
X2.642Y15.659
X2.642Y18.199
X47.092Y13.119
X47.092Y15.659
X47.092Y18.199
T003
X3.594Y26.772
X46.139Y26.772
M30
